<svg xmlns="http://www.w3.org/2000/svg" version="1.1" xmlns:xlink="http://www.w3.org/1999/xlink" width="83" height="40"><svg xmlns="http://www.w3.org/2000/svg" version="1.1" xmlns:xlink="http://www.w3.org/1999/xlink" width="83" height="40"><svg width="83" height="40" viewBox="0 0 83 40" fill="none" xmlns="http://www.w3.org/2000/svg">
<path d="M18.779 33.5708C17.6395 34.4001 16.3034 35.1515 14.7776 35.8249C13.2483 36.4965 11.3964 36.835 9.22026 36.835C7.97801 36.835 6.69501 36.6277 5.37479 36.213C4.0528 35.7983 2.93992 35.0859 2.0326 34.0758C1.12528 33.0657 0.50505 31.7065 0.16835 29.9964C-0.16835 28.2864 8.02755e-07 26.1386 0.673401 23.546L17.8469 16.3193V17.0193L12.0964 20.9817C11.8359 21.8111 11.6693 22.924 11.5913 24.3239C11.5134 25.7221 11.5913 27.0955 11.8235 28.4423C12.0574 29.7909 12.5093 30.9552 13.1827 31.9387C13.8561 32.924 14.8148 33.4148 16.0588 33.4148C16.6808 33.4148 17.2107 33.3634 17.6519 33.2589C18.0914 33.1561 18.4689 33.025 18.779 32.8708V33.5708V33.5708Z" fill="#FD4830"></path>
<path d="M2.53711 10.1026C2.53711 8.59988 3.04216 7.33105 4.05226 6.29437C5.06236 5.25946 6.31701 4.74023 7.82153 4.74023C9.3225 4.74023 10.5913 5.25946 11.6298 6.29437C12.6665 7.33105 13.1839 8.59988 13.1839 10.1026C13.1839 11.6054 12.6665 12.8618 11.6298 13.8719C10.5931 14.882 9.32427 15.387 7.82153 15.387C6.31878 15.387 5.06413 14.882 4.05226 13.8719C3.04216 12.8618 2.53711 11.6054 2.53711 10.1026Z" fill="#FD4830"></path>
<path d="M19.7115 9.9486C19.7115 9.01647 19.568 8.11092 19.2844 7.22842C18.9991 6.34768 18.5331 5.5715 17.8862 4.89633C17.2376 4.22293 16.3959 3.71788 15.361 3.38118C14.3243 3.04448 13.0555 2.98068 11.5527 3.18624V2.56424C12.4849 2.09817 13.7537 1.55413 15.361 0.932124C16.9665 0.310115 18.8573 0 21.0335 0C24.2977 0 26.8619 1.06326 28.7262 3.18624C30.5905 5.311 31.5244 8.08257 31.5244 11.501V27.1983C31.5244 27.9248 31.5492 28.5717 31.6023 29.1405C31.6537 29.7111 31.8752 30.241 32.2633 30.7336C32.6514 31.2263 33.2592 31.6923 34.0886 32.1318C34.9179 32.5731 36.1088 33.025 37.6629 33.491V33.9571C35.6941 34.6836 33.6473 35.3447 31.5244 35.9383C29.3996 36.5337 27.484 36.8314 25.7739 36.8314C24.0638 36.8314 22.6266 36.158 21.4606 34.8112C20.2945 33.4644 19.7115 31.3415 19.7115 28.4388V9.9486V9.9486Z" fill="#FD4830"></path>
<path d="M53.0911 33.3934C53.0911 34.586 53.1425 35.5181 53.2471 36.1898C53.3499 36.8632 53.5838 37.393 53.9471 37.7829C54.3086 38.171 54.8012 38.4705 55.4232 38.6778C56.0452 38.8851 56.8728 39.0925 57.9095 39.2998V39.9998H35.7617V39.2998C36.9526 39.0942 37.9113 38.8851 38.6379 38.6778C39.3626 38.4722 39.9191 38.1727 40.3089 37.7829C40.6988 37.393 40.9558 36.8649 41.0869 36.1898C41.2163 35.5181 41.2818 34.5842 41.2818 33.3934V16.3741C41.2818 15.0804 40.9434 13.8878 40.2717 12.7997C39.5983 11.7117 38.147 11.0117 35.9212 10.7016V10.0796C36.8533 9.66489 37.9414 9.19882 39.1837 8.67959C40.4277 8.16214 41.7745 7.64468 43.2241 7.12546C44.6736 6.608 46.1764 6.10295 47.7305 5.61031C49.2847 5.11766 50.8388 4.71539 52.3929 4.40527L53.0929 4.87134V33.3934H53.0911Z" fill="#FD4830"></path>
<path d="M55.033 8.37143C56.3798 7.59347 57.9871 6.73932 59.8514 5.80719C61.7156 4.87506 63.8138 4.40723 66.1459 4.40723C69.4083 4.40723 71.9743 5.47049 73.8386 7.59347C75.7028 9.71823 76.6368 12.488 76.6368 15.9082V33.3918C76.6368 34.5844 76.7005 35.5165 76.8317 36.1882C76.961 36.8616 77.2198 37.3914 77.6096 37.7813C77.9995 38.1712 78.5418 38.4689 79.2418 38.6762C79.9417 38.8835 80.8845 39.0909 82.0771 39.2982V39.9982H60.2395V39.2982C61.223 39.0926 62.0133 38.8835 62.6088 38.6762C63.2042 38.4706 63.6703 38.1712 64.0087 37.7813C64.3454 37.3932 64.5634 36.8633 64.6697 36.1882C64.7725 35.5165 64.8239 34.5826 64.8239 33.3918V17.3826C64.8239 15.8284 64.6414 14.4303 64.2799 13.188C63.9166 11.944 63.3477 10.9339 62.5698 10.1559C61.7918 9.37798 60.7835 8.8747 59.5395 8.64078C58.2955 8.40864 56.7927 8.55218 55.0312 9.06964V8.37143H55.033Z" fill="#FD4830"></path>
</svg></svg><style>@media (prefers-color-scheme: light) { :root { filter: none; } }
@media (prefers-color-scheme: dark) { :root { filter: none; } }
</style></svg>